<svg width="400" height="400" viewBox="0 0 400 400" fill="none" xmlns="http://www.w3.org/2000/svg">
<rect width="400" height="400" fill="#F3F4F6"/>
<rect width="400" height="400" fill="url(#paint0_linear)"/>
<path d="M200 180C222.091 180 240 162.091 240 140C240 117.909 222.091 100 200 100C177.909 100 160 117.909 160 140C160 162.091 177.909 180 200 180Z" fill="white" fill-opacity="0.5"/>
<path d="M140 280C140 235.817 175.817 200 220 200H180C135.817 200 100 235.817 100 280V300H140V280Z" fill="white" fill-opacity="0.5"/>
<path d="M260 280C260 235.817 224.183 200 180 200H220C264.183 200 300 235.817 300 280V300H260V280Z" fill="white" fill-opacity="0.5"/>
<defs>
<linearGradient id="paint0_linear" x1="0" y1="0" x2="400" y2="400" gradientUnits="userSpaceOnUse">
<stop stop-color="#6366F1"/>
<stop offset="1" stop-color="#EC4899"/>
</linearGradient>
</defs>
</svg>
